<?xml version="1.0" standalone="no"?>
<!DOCTYPE svg PUBLIC "-//W3C//DTD SVG 20010904//EN"
 "http://www.w3.org/TR/2001/REC-SVG-20010904/DTD/svg10.dtd">
<svg version="1.0" xmlns="http://www.w3.org/2000/svg"
 width="320.000000pt" height="320.000000pt" viewBox="0 0 320.000000 320.000000"
 preserveAspectRatio="xMidYMid meet">
<metadata>
Created by potrace 1.15, written by Peter Selinger 2001-2017
</metadata>
<g transform="translate(0.000000,320.000000) scale(0.100000,-0.100000)"
fill="#ffffff" stroke="none">
<path d="M1470 3193 c-281 -27 -522 -109 -737 -248 -362 -236 -600 -575 -701
-1000 -25 -103 -27 -126 -27 -345 0 -206 3 -247 23 -333 141 -629 617 -1103
1240 -1238 70 -15 149 -22 282 -26 159 -5 202 -2 309 16 509 87 937 404 1169
866 164 328 209 705 128 1065 -151 668 -712 1165 -1398 1239 -92 10 -210 12
-288 4z m120 -968 l0 -155 -225 0 -225 0 0 -760 0 -760 -150 0 -150 0 0 760 0
760 -225 0 -225 0 0 155 0 155 600 0 600 0 0 -155z m957 144 c103 -14 168 -46
235 -117 104 -108 139 -204 145 -397 7 -217 -31 -348 -137 -467 -98 -110 -188
-136 -492 -145 l-208 -6 0 -343 0 -344 -155 0 -155 0 0 915 0 915 344 0 c194
0 379 -5 423 -11z"/>
<path d="M2090 1810 l0 -263 173 6 c94 3 189 10 210 17 42 12 98 64 124 113 9
18 18 65 21 110 5 90 -12 148 -61 204 -51 58 -81 66 -284 71 l-183 4 0 -262z"/>
</g>
</svg>
