<?xml version="1.0" standalone="no"?>
<!DOCTYPE svg PUBLIC "-//W3C//DTD SVG 20010904//EN"
 "http://www.w3.org/TR/2001/REC-SVG-20010904/DTD/svg10.dtd">
<svg version="1.0" xmlns="http://www.w3.org/2000/svg"
 width="319.000000pt" height="320.000000pt" viewBox="0 0 319.000000 320.000000"
 preserveAspectRatio="xMidYMid meet">
<metadata>
Created by potrace 1.15, written by Peter Selinger 2001-2017
</metadata>
<g transform="translate(0.000000,320.000000) scale(0.100000,-0.100000)"
fill="#ffffff" stroke="none">
<path d="M1460 3193 c-481 -47 -883 -270 -1161 -645 -151 -204 -270 -488 -295
-707 l-7 -61 282 0 281 0 0 -190 0 -190 -280 0 c-325 0 -292 17 -259 -137 134
-620 615 -1100 1237 -1234 70 -15 149 -22 282 -26 159 -5 202 -2 309 16 509
87 937 404 1169 866 164 328 209 705 128 1065 -151 668 -712 1165 -1398 1239
-92 10 -210 12 -288 4z m795 -632 c173 -85 282 -288 331 -616 22 -146 24 -518
5 -670 -19 -149 -64 -312 -112 -411 -100 -205 -275 -307 -473 -275 -152 25
-263 114 -341 275 -89 184 -125 394 -125 734 1 440 69 706 223 870 96 101 181
134 329 129 86 -3 105 -8 163 -36z m-1007 -968 l2 -983 -190 0 -190 0 0 820 0
820 -95 0 -95 0 0 165 0 165 283 -2 282 -3 3 -982z"/>
<path d="M2020 2313 c-47 -24 -85 -102 -107 -223 -15 -81 -18 -156 -18 -500 0
-430 9 -533 54 -635 24 -55 73 -95 117 -95 149 0 191 192 181 824 -5 357 -17
468 -60 554 -39 79 -103 108 -167 75z"/>
</g>
</svg>
