<?xml version="1.0" standalone="no"?>
<!DOCTYPE svg PUBLIC "-//W3C//DTD SVG 20010904//EN"
 "http://www.w3.org/TR/2001/REC-SVG-20010904/DTD/svg10.dtd">
<svg version="1.0" xmlns="http://www.w3.org/2000/svg"
 width="319.000000pt" height="320.000000pt" viewBox="0 0 319.000000 320.000000"
 preserveAspectRatio="xMidYMid meet">
<metadata>
Created by potrace 1.15, written by Peter Selinger 2001-2017
</metadata>
<g transform="translate(0.000000,320.000000) scale(0.100000,-0.100000)"
fill="#ffffff" stroke="none">
<path d="M1425 3194 c-388 -55 -682 -190 -935 -431 -246 -233 -398 -502 -470
-828 -11 -49 -20 -105 -20 -122 l0 -33 280 0 280 0 0 -190 0 -190 -281 0 -281
0 7 -55 c8 -70 48 -220 82 -310 144 -385 444 -711 816 -885 222 -103 378 -139
637 -147 159 -5 202 -2 309 16 588 100 1069 511 1255 1072 135 406 105 843
-84 1219 -225 449 -637 763 -1127 861 -104 20 -388 34 -468 23z m820 -609
c132 -35 240 -128 290 -251 23 -57 29 -88 33 -180 10 -248 -56 -431 -341 -947
-76 -135 -137 -249 -137 -252 0 -3 97 -5 215 -5 l215 0 1 -140 c1 -77 2 -147
2 -155 0 -48 30 -45 -483 -45 -264 0 -480 3 -480 7 0 4 119 239 264 522 276
539 318 630 361 777 50 173 44 287 -20 351 -30 30 -38 33 -93 33 -112 0 -147
-57 -165 -262 l-11 -128 -159 0 -160 0 6 128 c6 145 23 217 72 319 56 115 162
198 290 229 72 18 230 17 300 -1z m-995 -990 l0 -985 -190 0 -190 0 0 820 0
820 -95 0 -95 0 0 165 0 165 285 0 285 0 0 -985z"/>
</g>
</svg>
