<?xml version="1.0" standalone="no"?>
<!DOCTYPE svg PUBLIC "-//W3C//DTD SVG 20010904//EN"
 "http://www.w3.org/TR/2001/REC-SVG-20010904/DTD/svg10.dtd">
<svg version="1.0" xmlns="http://www.w3.org/2000/svg"
 width="318.000000pt" height="320.000000pt" viewBox="0 0 318.000000 320.000000"
 preserveAspectRatio="xMidYMid meet">
<metadata>
Created by potrace 1.15, written by Peter Selinger 2001-2017
</metadata>
<g transform="translate(0.000000,320.000000) scale(0.100000,-0.100000)"
fill="#ffffff" stroke="none">
<path d="M1424 3190 c-622 -66 -1154 -490 -1350 -1077 -31 -92 -74 -277 -74
-318 0 -13 41 -15 280 -15 l280 0 0 -187 0 -188 -280 2 c-169 2 -280 -1 -280
-7 0 -5 9 -54 19 -109 120 -619 607 -1116 1223 -1250 287 -62 570 -47 847 45
552 183 960 652 1067 1229 29 153 26 452 -5 599 -89 423 -330 780 -684 1017
-301 201 -685 296 -1043 259z m-176 -1592 l-3 -983 -187 -3 -188 -2 0 820 0
820 -95 0 -95 0 0 165 0 165 285 0 285 0 -2 -982z m1039 780 c-58 -112 -137
-266 -175 -343 -39 -77 -85 -163 -101 -191 l-30 -52 71 37 c68 34 75 36 172
36 90 0 106 -3 152 -27 99 -52 176 -163 211 -305 27 -107 24 -380 -5 -498 -73
-294 -245 -445 -506 -445 -159 0 -270 42 -366 139 -114 114 -170 288 -171 532
-1 277 46 429 284 924 71 149 143 298 159 333 l30 62 190 0 190 0 -105 -202z"/>
<path d="M2023 1574 c-73 -36 -106 -144 -107 -349 0 -164 16 -236 67 -292 26
-27 42 -36 77 -40 103 -10 163 70 183 245 15 134 -2 294 -38 367 -39 80 -107
106 -182 69z"/>
</g>
</svg>
