<?xml version="1.0" standalone="no"?>
<!DOCTYPE svg PUBLIC "-//W3C//DTD SVG 20010904//EN"
 "http://www.w3.org/TR/2001/REC-SVG-20010904/DTD/svg10.dtd">
<svg version="1.0" xmlns="http://www.w3.org/2000/svg"
 width="319.000000pt" height="320.000000pt" viewBox="0 0 319.000000 320.000000"
 preserveAspectRatio="xMidYMid meet">
<metadata>
Created by potrace 1.15, written by Peter Selinger 2001-2017
</metadata>
<g transform="translate(0.000000,320.000000) scale(0.100000,-0.100000)"
fill="#ffffff" stroke="none">
<path d="M1380 3190 c-372 -52 -689 -214 -951 -487 -208 -217 -343 -471 -409
-768 -11 -49 -20 -102 -20 -117 l0 -28 280 0 280 0 0 -195 0 -195 -281 0 -281
0 7 -52 c21 -157 100 -383 186 -533 236 -411 614 -685 1089 -786 89 -20 135
-23 305 -23 224 0 319 15 511 79 408 136 755 446 939 840 237 505 190 1104
-123 1570 -232 345 -592 586 -1009 675 -112 24 -412 35 -523 20z m843 -595
c199 -52 303 -189 323 -425 18 -207 -63 -392 -196 -449 -27 -12 -50 -25 -50
-29 0 -5 17 -14 38 -21 168 -61 262 -240 262 -501 0 -308 -131 -502 -382 -566
-84 -22 -259 -14 -340 15 -146 51 -245 155 -298 311 -17 51 -23 96 -27 205 -6
159 8 246 53 342 38 79 125 165 192 189 29 10 52 22 52 26 0 4 -21 16 -47 28
-141 62 -215 230 -199 453 15 213 117 360 286 412 30 9 60 18 65 20 31 10 218
3 268 -10z m-975 -992 l-3 -988 -187 -3 -188 -2 0 825 0 825 -95 0 -95 0 0
165 0 165 285 0 285 0 -2 -987z"/>
<path d="M2011 2322 c-19 -9 -43 -28 -53 -42 -27 -37 -41 -133 -34 -229 11
-141 49 -199 139 -208 58 -6 106 21 133 74 41 81 40 260 -2 349 -12 25 -30 42
-58 55 -51 23 -82 24 -125 1z"/>
<path d="M2010 1523 c-95 -38 -143 -226 -109 -433 23 -147 107 -220 217 -191
99 27 137 116 136 321 -1 153 -19 223 -74 275 -26 25 -40 29 -93 32 -34 1 -69
0 -77 -4z"/>
</g>
</svg>
