<?xml version="1.0" standalone="no"?>
<!DOCTYPE svg PUBLIC "-//W3C//DTD SVG 20010904//EN"
 "http://www.w3.org/TR/2001/REC-SVG-20010904/DTD/svg10.dtd">
<svg version="1.0" xmlns="http://www.w3.org/2000/svg"
 width="320.000000pt" height="320.000000pt" viewBox="0 0 320.000000 320.000000"
 preserveAspectRatio="xMidYMid meet">
<metadata>
Created by potrace 1.15, written by Peter Selinger 2001-2017
</metadata>
<g transform="translate(0.000000,320.000000) scale(0.100000,-0.100000)"
fill="#ffffff" stroke="none">
<path d="M1470 3193 c-281 -27 -522 -109 -737 -248 -362 -236 -600 -575 -701
-1000 -25 -103 -27 -126 -27 -345 0 -206 3 -247 23 -333 141 -629 617 -1103
1240 -1238 70 -15 149 -22 282 -26 159 -5 202 -2 309 16 509 87 937 404 1169
866 164 328 209 705 128 1065 -151 668 -712 1165 -1398 1239 -92 10 -210 12
-288 4z m281 -587 c175 -37 325 -174 380 -345 30 -93 30 -243 0 -322 -33 -86
-88 -165 -195 -278 -177 -188 -196 -222 -196 -361 l0 -60 -130 0 -130 0 0 93
c1 206 39 290 222 485 148 158 172 198 171 287 -1 78 -27 138 -81 187 -47 42
-94 58 -172 58 -127 0 -225 -89 -261 -236 -6 -27 -15 -53 -19 -58 -5 -4 -65 0
-135 10 l-127 17 6 59 c8 69 35 150 73 219 34 63 147 170 215 205 101 51 251
67 379 40z m19 -1661 l0 -175 -145 0 -145 0 0 175 0 175 145 0 145 0 0 -175z"/>
</g>
</svg>
